<svg xmlns="http://www.w3.org/2000/svg" xmlns:xlink="http://www.w3.org/1999/xlink" version="1.1" width="170.079pt" height="170.079pt" viewBox="0 0 170.079 170.079">
<defs>
<clipPath id="clip_0">
<path transform="matrix(1,0,0,-1,0,170.079)" d="M0 170.079H170.079V0H0Z"/>
</clipPath>
</defs>
<g id="layer_1" data-name="Layer 1">
<g clip-path="url(#clip_0)">
<path transform="matrix(1,0,0,-1,170.2432,85.0396)" d="M0 0C0-46.966-38.073-85.039-85.039-85.039-132.005-85.039-170.079-46.966-170.079 0-170.079 46.966-132.005 85.039-85.039 85.039-38.073 85.039 0 46.966 0 0"/>
<path transform="matrix(1,0,0,-1,44.3789,115.571)" d="M0 0C8.057-8.446 19.421-13.708 32.015-13.708 44.608-13.708 55.972-8.446 64.029-.001V0Z" fill="#ffffff"/>
<path transform="matrix(1,0,0,-1,108.408,65.72389)" d="M0 0H-71.823C-73.882-4.236-75.286-8.849-75.901-13.708H0Z" fill="#ffffff"/>
<path transform="matrix(1,0,0,-1,108.408,54.50759)" d="M0 0C-8.057 8.445-19.421 13.707-32.014 13.707-44.608 13.707-55.972 8.445-64.029-.001H0Z" fill="#ffffff"/>
<path transform="matrix(1,0,0,-1,108.408,90.64749)" d="M0 0H-75.901C-75.286-4.859-73.882-9.472-71.823-13.708H0Z" fill="#ffffff"/>
<path transform="matrix(1,0,0,-1,116.2029,65.72389)" d="M0 0C2.059-4.236 3.463-8.849 4.078-13.708H21.698V0Z" fill="#ffffff"/>
<path transform="matrix(1,0,0,-1,108.408,115.571598)" d="M0 0V-13.707H29.493V.001H.001L0 0" fill="#ffffff"/>
<path transform="matrix(1,0,0,-1,116.203,104.35549)" d="M0 0H21.698V13.708H4.078C3.463 8.849 2.059 4.236 0 0" fill="#ffffff"/>
<path transform="matrix(1,0,0,-1,137.9008,54.508295)" d="M0 0V13.708H-29.493V.001L-29.492 0Z" fill="#ffffff"/>
<path transform="matrix(1,0,0,-1,108.4086,54.508295)" d="M0 0C0 0 0 .001-.001 .001V0Z" fill="#ffffff"/>
<path transform="matrix(1,0,0,-1,108.408,115.571)" d="M0 0V-.001C0 0 0 0 .001 0Z" fill="#ffffff"/>
<path transform="matrix(1,0,0,-1,120.2807,79.43179)" d="M0 0C-.615 4.859-2.019 9.472-4.078 13.708-6.091 17.848-8.729 21.629-11.872 24.924H-11.873V13.708 0-11.216-24.924-36.139H-11.872C-8.729-32.844-6.091-29.064-4.078-24.924-2.019-20.688-.615-16.075 0-11.216 .232-9.379 .352-7.507 .352-5.608 .352-3.708 .232-1.837 0 0" fill="#3464fd"/>
</g>
</g>
</svg>
